<mxfile host="app.diagrams.net" modified="2023-05-06T21:16:18.264Z" agent="Mozilla/5.0 (Windows NT 10.0; Win64; x64) AppleWebKit/537.36 (KHTML, like Gecko) Chrome/112.0.0.0 Safari/537.36" etag="haj8gLapGfpTacGNak6j" version="21.2.4" type="device" pages="2">
  <diagram id="nJJkk1liXFZkpycsaKev" name="Page-1">
    <mxGraphModel dx="1518" dy="679" grid="1" gridSize="10" guides="1" tooltips="1" connect="1" arrows="1" fold="1" page="1" pageScale="1" pageWidth="827" pageHeight="1169" math="0" shadow="0">
      <root>
        <mxCell id="0" />
        <mxCell id="1" parent="0" />
        <mxCell id="LHLX_6FpRkzY1i8xHUrP-8" value="" style="edgeStyle=orthogonalEdgeStyle;rounded=0;orthogonalLoop=1;jettySize=auto;html=1;" parent="1" source="LHLX_6FpRkzY1i8xHUrP-5" target="LHLX_6FpRkzY1i8xHUrP-7" edge="1">
          <mxGeometry relative="1" as="geometry" />
        </mxCell>
        <mxCell id="LHLX_6FpRkzY1i8xHUrP-5" value="&lt;font style=&quot;vertical-align: inherit;&quot;&gt;&lt;font style=&quot;vertical-align: inherit;&quot;&gt;começar&lt;/font&gt;&lt;/font&gt;" style="strokeWidth=2;html=1;shape=mxgraph.flowchart.start_1;whiteSpace=wrap;" parent="1" vertex="1">
          <mxGeometry x="70" y="80" width="100" height="60" as="geometry" />
        </mxCell>
        <mxCell id="LHLX_6FpRkzY1i8xHUrP-10" value="" style="edgeStyle=orthogonalEdgeStyle;rounded=0;orthogonalLoop=1;jettySize=auto;html=1;" parent="1" source="LHLX_6FpRkzY1i8xHUrP-7" target="LHLX_6FpRkzY1i8xHUrP-9" edge="1">
          <mxGeometry relative="1" as="geometry" />
        </mxCell>
        <mxCell id="LHLX_6FpRkzY1i8xHUrP-7" value="&lt;font style=&quot;vertical-align: inherit;&quot;&gt;&lt;font style=&quot;vertical-align: inherit;&quot;&gt;Página de login: O usuario insere o login/senha.&lt;/font&gt;&lt;/font&gt;" style="whiteSpace=wrap;html=1;strokeWidth=2;" parent="1" vertex="1">
          <mxGeometry x="60" y="220" width="120" height="60" as="geometry" />
        </mxCell>
        <mxCell id="LHLX_6FpRkzY1i8xHUrP-14" value="" style="edgeStyle=orthogonalEdgeStyle;rounded=0;orthogonalLoop=1;jettySize=auto;html=1;" parent="1" source="LHLX_6FpRkzY1i8xHUrP-9" target="LHLX_6FpRkzY1i8xHUrP-13" edge="1">
          <mxGeometry relative="1" as="geometry" />
        </mxCell>
        <mxCell id="LHLX_6FpRkzY1i8xHUrP-146" value="&lt;span style=&quot;font-size: 6px; background-color: rgb(248, 249, 250);&quot;&gt;informações de login corretas?&amp;nbsp;&lt;/span&gt;" style="edgeLabel;html=1;align=center;verticalAlign=middle;resizable=0;points=[];fontSize=9;" parent="LHLX_6FpRkzY1i8xHUrP-14" vertex="1" connectable="0">
          <mxGeometry x="-0.0952" relative="1" as="geometry">
            <mxPoint as="offset" />
          </mxGeometry>
        </mxCell>
        <mxCell id="LHLX_6FpRkzY1i8xHUrP-18" value="" style="edgeStyle=orthogonalEdgeStyle;rounded=0;orthogonalLoop=1;jettySize=auto;html=1;" parent="1" source="LHLX_6FpRkzY1i8xHUrP-9" target="LHLX_6FpRkzY1i8xHUrP-17" edge="1">
          <mxGeometry relative="1" as="geometry" />
        </mxCell>
        <mxCell id="LHLX_6FpRkzY1i8xHUrP-147" value="Login/senha incorreto" style="edgeLabel;html=1;align=center;verticalAlign=middle;resizable=0;points=[];fontSize=9;" parent="LHLX_6FpRkzY1i8xHUrP-18" vertex="1" connectable="0">
          <mxGeometry x="-0.3114" y="-1" relative="1" as="geometry">
            <mxPoint as="offset" />
          </mxGeometry>
        </mxCell>
        <mxCell id="LHLX_6FpRkzY1i8xHUrP-9" value="&lt;font style=&quot;font-size: 6px;&quot;&gt;informações de login corretas?&amp;nbsp;&lt;/font&gt;" style="rhombus;whiteSpace=wrap;html=1;strokeWidth=2;" parent="1" vertex="1">
          <mxGeometry x="280" y="210" width="80" height="80" as="geometry" />
        </mxCell>
        <mxCell id="LHLX_6FpRkzY1i8xHUrP-16" value="" style="edgeStyle=orthogonalEdgeStyle;rounded=0;orthogonalLoop=1;jettySize=auto;html=1;" parent="1" source="LHLX_6FpRkzY1i8xHUrP-13" target="LHLX_6FpRkzY1i8xHUrP-15" edge="1">
          <mxGeometry relative="1" as="geometry" />
        </mxCell>
        <mxCell id="LHLX_6FpRkzY1i8xHUrP-13" value="ver detalhes da conta" style="whiteSpace=wrap;html=1;strokeWidth=2;" parent="1" vertex="1">
          <mxGeometry x="480" y="220" width="120" height="60" as="geometry" />
        </mxCell>
        <mxCell id="LHLX_6FpRkzY1i8xHUrP-41" value="" style="edgeStyle=orthogonalEdgeStyle;rounded=0;orthogonalLoop=1;jettySize=auto;html=1;" parent="1" source="LHLX_6FpRkzY1i8xHUrP-15" target="LHLX_6FpRkzY1i8xHUrP-40" edge="1">
          <mxGeometry relative="1" as="geometry" />
        </mxCell>
        <mxCell id="LHLX_6FpRkzY1i8xHUrP-15" value="&lt;font style=&quot;vertical-align: inherit;&quot;&gt;&lt;font style=&quot;vertical-align: inherit;&quot;&gt;pgar cartão de credito&lt;/font&gt;&lt;/font&gt;" style="whiteSpace=wrap;html=1;strokeWidth=2;" parent="1" vertex="1">
          <mxGeometry x="680" y="220" width="120" height="60" as="geometry" />
        </mxCell>
        <mxCell id="LHLX_6FpRkzY1i8xHUrP-20" value="" style="edgeStyle=orthogonalEdgeStyle;rounded=0;orthogonalLoop=1;jettySize=auto;html=1;" parent="1" source="LHLX_6FpRkzY1i8xHUrP-17" target="LHLX_6FpRkzY1i8xHUrP-19" edge="1">
          <mxGeometry relative="1" as="geometry" />
        </mxCell>
        <mxCell id="LHLX_6FpRkzY1i8xHUrP-17" value="redefinição de senha: o usuário insere o endereço de e-mail" style="whiteSpace=wrap;html=1;strokeWidth=2;" parent="1" vertex="1">
          <mxGeometry x="260" y="380" width="120" height="60" as="geometry" />
        </mxCell>
        <mxCell id="LHLX_6FpRkzY1i8xHUrP-22" value="" style="rounded=0;orthogonalLoop=1;jettySize=auto;html=1;edgeStyle=orthogonalEdgeStyle;" parent="1" source="LHLX_6FpRkzY1i8xHUrP-19" target="LHLX_6FpRkzY1i8xHUrP-21" edge="1">
          <mxGeometry relative="1" as="geometry" />
        </mxCell>
        <mxCell id="LHLX_6FpRkzY1i8xHUrP-151" value="&lt;font style=&quot;vertical-align: inherit;&quot;&gt;&lt;font style=&quot;vertical-align: inherit;&quot;&gt;&lt;font style=&quot;vertical-align: inherit;&quot;&gt;&lt;font style=&quot;vertical-align: inherit;&quot;&gt;&lt;font style=&quot;vertical-align: inherit;&quot;&gt;&lt;font style=&quot;vertical-align: inherit;&quot;&gt;e-mail não corresponde&lt;/font&gt;&lt;/font&gt;&lt;/font&gt;&lt;/font&gt;&lt;/font&gt;&lt;/font&gt;" style="edgeLabel;html=1;align=center;verticalAlign=middle;resizable=0;points=[];fontSize=6;" parent="LHLX_6FpRkzY1i8xHUrP-22" vertex="1" connectable="0">
          <mxGeometry x="-0.0512" y="1" relative="1" as="geometry">
            <mxPoint as="offset" />
          </mxGeometry>
        </mxCell>
        <mxCell id="LHLX_6FpRkzY1i8xHUrP-19" value="&lt;font style=&quot;font-size: 12px;&quot;&gt;&lt;font style=&quot;vertical-align: inherit;&quot;&gt;&lt;font style=&quot;vertical-align: inherit;&quot;&gt;email corresponde ao registro DB?&amp;nbsp;&lt;/font&gt;&lt;/font&gt;&lt;/font&gt;" style="rhombus;whiteSpace=wrap;html=1;strokeWidth=2;" parent="1" vertex="1">
          <mxGeometry x="280" y="510" width="80" height="80" as="geometry" />
        </mxCell>
        <mxCell id="LHLX_6FpRkzY1i8xHUrP-24" value="" style="edgeStyle=orthogonalEdgeStyle;rounded=0;orthogonalLoop=1;jettySize=auto;html=1;" parent="1" source="LHLX_6FpRkzY1i8xHUrP-21" target="LHLX_6FpRkzY1i8xHUrP-23" edge="1">
          <mxGeometry relative="1" as="geometry" />
        </mxCell>
        <mxCell id="LHLX_6FpRkzY1i8xHUrP-21" value="redigite o endereço de email" style="whiteSpace=wrap;html=1;strokeWidth=2;" parent="1" vertex="1">
          <mxGeometry x="260" y="680" width="120" height="60" as="geometry" />
        </mxCell>
        <mxCell id="LHLX_6FpRkzY1i8xHUrP-26" value="" style="edgeStyle=orthogonalEdgeStyle;rounded=0;orthogonalLoop=1;jettySize=auto;html=1;" parent="1" source="LHLX_6FpRkzY1i8xHUrP-23" target="LHLX_6FpRkzY1i8xHUrP-25" edge="1">
          <mxGeometry relative="1" as="geometry" />
        </mxCell>
        <mxCell id="LHLX_6FpRkzY1i8xHUrP-152" value="&lt;font style=&quot;vertical-align: inherit;&quot;&gt;&lt;font style=&quot;vertical-align: inherit;&quot;&gt;email não corresponde&lt;/font&gt;&lt;/font&gt;" style="edgeLabel;html=1;align=center;verticalAlign=middle;resizable=0;points=[];fontSize=6;" parent="LHLX_6FpRkzY1i8xHUrP-26" vertex="1" connectable="0">
          <mxGeometry x="-0.1565" y="1" relative="1" as="geometry">
            <mxPoint as="offset" />
          </mxGeometry>
        </mxCell>
        <mxCell id="LHLX_6FpRkzY1i8xHUrP-23" value="email corresponde ao registro DB?" style="rhombus;whiteSpace=wrap;html=1;strokeWidth=2;" parent="1" vertex="1">
          <mxGeometry x="280" y="810" width="80" height="80" as="geometry" />
        </mxCell>
        <mxCell id="LHLX_6FpRkzY1i8xHUrP-25" value="processo de registro" style="shape=process;whiteSpace=wrap;html=1;backgroundOutline=1;strokeWidth=2;" parent="1" vertex="1">
          <mxGeometry x="260" y="980" width="120" height="60" as="geometry" />
        </mxCell>
        <mxCell id="LHLX_6FpRkzY1i8xHUrP-30" value="" style="edgeStyle=orthogonalEdgeStyle;rounded=0;orthogonalLoop=1;jettySize=auto;html=1;" parent="1" source="LHLX_6FpRkzY1i8xHUrP-27" target="LHLX_6FpRkzY1i8xHUrP-29" edge="1">
          <mxGeometry relative="1" as="geometry" />
        </mxCell>
        <mxCell id="LHLX_6FpRkzY1i8xHUrP-27" value="redefinir email enviado: o usuario clica no link para redefinir" style="whiteSpace=wrap;html=1;strokeWidth=2;" parent="1" vertex="1">
          <mxGeometry x="70" y="670" width="120" height="60" as="geometry" />
        </mxCell>
        <mxCell id="LHLX_6FpRkzY1i8xHUrP-32" value="" style="edgeStyle=orthogonalEdgeStyle;rounded=0;orthogonalLoop=1;jettySize=auto;html=1;" parent="1" source="LHLX_6FpRkzY1i8xHUrP-29" target="LHLX_6FpRkzY1i8xHUrP-31" edge="1">
          <mxGeometry relative="1" as="geometry" />
        </mxCell>
        <mxCell id="LHLX_6FpRkzY1i8xHUrP-29" value="insira a nova senha" style="whiteSpace=wrap;html=1;strokeWidth=2;" parent="1" vertex="1">
          <mxGeometry x="70" y="810" width="120" height="60" as="geometry" />
        </mxCell>
        <mxCell id="LHLX_6FpRkzY1i8xHUrP-33" style="edgeStyle=orthogonalEdgeStyle;rounded=0;orthogonalLoop=1;jettySize=auto;html=1;" parent="1" source="LHLX_6FpRkzY1i8xHUrP-31" edge="1">
          <mxGeometry relative="1" as="geometry">
            <mxPoint x="60" y="250" as="targetPoint" />
            <Array as="points">
              <mxPoint x="20" y="1130" />
              <mxPoint x="20" y="250" />
              <mxPoint x="60" y="250" />
            </Array>
          </mxGeometry>
        </mxCell>
        <mxCell id="LHLX_6FpRkzY1i8xHUrP-31" value="confirmação" style="whiteSpace=wrap;html=1;strokeWidth=2;" parent="1" vertex="1">
          <mxGeometry x="70" y="950" width="120" height="60" as="geometry" />
        </mxCell>
        <mxCell id="LHLX_6FpRkzY1i8xHUrP-35" value="" style="strokeWidth=2;html=1;shape=mxgraph.flowchart.annotation_2;align=left;labelPosition=right;pointerEvents=1;" parent="1" vertex="1">
          <mxGeometry x="190" y="550" width="90" height="300" as="geometry" />
        </mxCell>
        <mxCell id="LHLX_6FpRkzY1i8xHUrP-54" style="edgeStyle=orthogonalEdgeStyle;rounded=0;orthogonalLoop=1;jettySize=auto;html=1;entryX=0.5;entryY=0;entryDx=0;entryDy=0;" parent="1" source="LHLX_6FpRkzY1i8xHUrP-40" target="LHLX_6FpRkzY1i8xHUrP-47" edge="1">
          <mxGeometry relative="1" as="geometry">
            <mxPoint x="1000" y="390" as="targetPoint" />
          </mxGeometry>
        </mxCell>
        <mxCell id="LHLX_6FpRkzY1i8xHUrP-153" value="&lt;font style=&quot;font-size: 12px;&quot;&gt;equilibrio&lt;/font&gt;" style="edgeLabel;html=1;align=center;verticalAlign=middle;resizable=0;points=[];fontSize=6;" parent="LHLX_6FpRkzY1i8xHUrP-54" vertex="1" connectable="0">
          <mxGeometry x="-0.313" y="2" relative="1" as="geometry">
            <mxPoint as="offset" />
          </mxGeometry>
        </mxCell>
        <mxCell id="LHLX_6FpRkzY1i8xHUrP-56" style="edgeStyle=orthogonalEdgeStyle;rounded=0;orthogonalLoop=1;jettySize=auto;html=1;" parent="1" source="LHLX_6FpRkzY1i8xHUrP-40" edge="1">
          <mxGeometry relative="1" as="geometry">
            <mxPoint x="1000" y="460" as="targetPoint" />
            <Array as="points">
              <mxPoint x="740" y="460" />
              <mxPoint x="1000" y="460" />
            </Array>
          </mxGeometry>
        </mxCell>
        <mxCell id="LHLX_6FpRkzY1i8xHUrP-154" value="pagamento minimo devido" style="edgeLabel;html=1;align=center;verticalAlign=middle;resizable=0;points=[];fontSize=12;" parent="LHLX_6FpRkzY1i8xHUrP-56" vertex="1" connectable="0">
          <mxGeometry x="0.0012" y="1" relative="1" as="geometry">
            <mxPoint as="offset" />
          </mxGeometry>
        </mxCell>
        <mxCell id="LHLX_6FpRkzY1i8xHUrP-40" value="&lt;font style=&quot;vertical-align: inherit;&quot;&gt;&lt;font style=&quot;vertical-align: inherit;&quot;&gt;pagar qual valor?&lt;/font&gt;&lt;/font&gt;" style="rhombus;whiteSpace=wrap;html=1;strokeWidth=2;" parent="1" vertex="1">
          <mxGeometry x="700" y="350" width="80" height="80" as="geometry" />
        </mxCell>
        <mxCell id="LHLX_6FpRkzY1i8xHUrP-45" value="" style="edgeStyle=orthogonalEdgeStyle;rounded=0;orthogonalLoop=1;jettySize=auto;html=1;" parent="1" source="LHLX_6FpRkzY1i8xHUrP-42" target="LHLX_6FpRkzY1i8xHUrP-44" edge="1">
          <mxGeometry relative="1" as="geometry" />
        </mxCell>
        <mxCell id="LHLX_6FpRkzY1i8xHUrP-46" style="edgeStyle=orthogonalEdgeStyle;rounded=0;orthogonalLoop=1;jettySize=auto;html=1;entryX=0;entryY=0.5;entryDx=0;entryDy=0;" parent="1" source="LHLX_6FpRkzY1i8xHUrP-42" target="LHLX_6FpRkzY1i8xHUrP-40" edge="1">
          <mxGeometry relative="1" as="geometry">
            <mxPoint x="620" y="380" as="targetPoint" />
            <Array as="points">
              <mxPoint x="620" y="390" />
            </Array>
          </mxGeometry>
        </mxCell>
        <mxCell id="LHLX_6FpRkzY1i8xHUrP-155" value="outro montante" style="edgeLabel;html=1;align=center;verticalAlign=middle;resizable=0;points=[];fontSize=12;" parent="LHLX_6FpRkzY1i8xHUrP-46" vertex="1" connectable="0">
          <mxGeometry x="-0.3794" relative="1" as="geometry">
            <mxPoint as="offset" />
          </mxGeometry>
        </mxCell>
        <mxCell id="LHLX_6FpRkzY1i8xHUrP-42" value="&lt;font style=&quot;vertical-align: inherit;&quot;&gt;&lt;font style=&quot;vertical-align: inherit;&quot;&gt;se o pagamento for menor que o minimo devido, mostre o aviso&lt;/font&gt;&lt;/font&gt;" style="whiteSpace=wrap;html=1;strokeWidth=2;" parent="1" vertex="1">
          <mxGeometry x="560" y="460" width="120" height="60" as="geometry" />
        </mxCell>
        <mxCell id="LHLX_6FpRkzY1i8xHUrP-57" style="edgeStyle=orthogonalEdgeStyle;rounded=0;orthogonalLoop=1;jettySize=auto;html=1;entryX=0;entryY=0.5;entryDx=0;entryDy=0;" parent="1" source="LHLX_6FpRkzY1i8xHUrP-44" target="LHLX_6FpRkzY1i8xHUrP-47" edge="1">
          <mxGeometry relative="1" as="geometry">
            <mxPoint x="620" y="760" as="targetPoint" />
            <Array as="points">
              <mxPoint x="620" y="760" />
              <mxPoint x="810" y="760" />
              <mxPoint x="810" y="550" />
            </Array>
          </mxGeometry>
        </mxCell>
        <mxCell id="LHLX_6FpRkzY1i8xHUrP-44" value="&lt;font style=&quot;vertical-align: inherit;&quot;&gt;&lt;font style=&quot;vertical-align: inherit;&quot;&gt;opção para selecionar quantidade diferente&lt;/font&gt;&lt;/font&gt;" style="whiteSpace=wrap;html=1;strokeWidth=2;" parent="1" vertex="1">
          <mxGeometry x="560" y="600" width="120" height="60" as="geometry" />
        </mxCell>
        <mxCell id="LHLX_6FpRkzY1i8xHUrP-58" style="edgeStyle=orthogonalEdgeStyle;rounded=0;orthogonalLoop=1;jettySize=auto;html=1;entryX=0.5;entryY=0;entryDx=0;entryDy=0;" parent="1" source="LHLX_6FpRkzY1i8xHUrP-47" target="LHLX_6FpRkzY1i8xHUrP-48" edge="1">
          <mxGeometry relative="1" as="geometry" />
        </mxCell>
        <mxCell id="LHLX_6FpRkzY1i8xHUrP-47" value="&lt;font style=&quot;vertical-align: inherit;&quot;&gt;&lt;font style=&quot;vertical-align: inherit;&quot;&gt;selecione a conta de pagamento&lt;/font&gt;&lt;/font&gt;" style="whiteSpace=wrap;html=1;strokeWidth=2;" parent="1" vertex="1">
          <mxGeometry x="940" y="520" width="120" height="60" as="geometry" />
        </mxCell>
        <mxCell id="LHLX_6FpRkzY1i8xHUrP-59" style="edgeStyle=orthogonalEdgeStyle;rounded=0;orthogonalLoop=1;jettySize=auto;html=1;entryX=0.5;entryY=0;entryDx=0;entryDy=0;" parent="1" source="LHLX_6FpRkzY1i8xHUrP-48" target="LHLX_6FpRkzY1i8xHUrP-49" edge="1">
          <mxGeometry relative="1" as="geometry" />
        </mxCell>
        <mxCell id="LHLX_6FpRkzY1i8xHUrP-48" value="&lt;font style=&quot;vertical-align: inherit;&quot;&gt;&lt;font style=&quot;vertical-align: inherit;&quot;&gt;selecione a data de postagem do pagamento&lt;/font&gt;&lt;/font&gt;" style="whiteSpace=wrap;html=1;strokeWidth=2;" parent="1" vertex="1">
          <mxGeometry x="940" y="630" width="120" height="60" as="geometry" />
        </mxCell>
        <mxCell id="LHLX_6FpRkzY1i8xHUrP-60" style="edgeStyle=orthogonalEdgeStyle;rounded=0;orthogonalLoop=1;jettySize=auto;html=1;entryX=0.5;entryY=0;entryDx=0;entryDy=0;" parent="1" source="LHLX_6FpRkzY1i8xHUrP-49" target="LHLX_6FpRkzY1i8xHUrP-50" edge="1">
          <mxGeometry relative="1" as="geometry" />
        </mxCell>
        <mxCell id="LHLX_6FpRkzY1i8xHUrP-49" value="revisar e enviar" style="whiteSpace=wrap;html=1;strokeWidth=2;" parent="1" vertex="1">
          <mxGeometry x="940" y="730" width="120" height="60" as="geometry" />
        </mxCell>
        <mxCell id="LHLX_6FpRkzY1i8xHUrP-52" value="" style="edgeStyle=orthogonalEdgeStyle;rounded=0;orthogonalLoop=1;jettySize=auto;html=1;" parent="1" source="LHLX_6FpRkzY1i8xHUrP-50" target="LHLX_6FpRkzY1i8xHUrP-51" edge="1">
          <mxGeometry relative="1" as="geometry" />
        </mxCell>
        <mxCell id="LHLX_6FpRkzY1i8xHUrP-50" value="confirmação" style="whiteSpace=wrap;html=1;strokeWidth=2;" parent="1" vertex="1">
          <mxGeometry x="940" y="840" width="120" height="60" as="geometry" />
        </mxCell>
        <mxCell id="LHLX_6FpRkzY1i8xHUrP-51" value="&lt;font style=&quot;vertical-align: inherit;&quot;&gt;&lt;font style=&quot;vertical-align: inherit;&quot;&gt;Fim&lt;/font&gt;&lt;/font&gt;" style="rounded=1;whiteSpace=wrap;html=1;strokeWidth=2;" parent="1" vertex="1">
          <mxGeometry x="940" y="980" width="120" height="60" as="geometry" />
        </mxCell>
        <mxCell id="LHLX_6FpRkzY1i8xHUrP-149" value="&lt;span style=&quot;&quot;&gt;&lt;font style=&quot;vertical-align: inherit;&quot;&gt;&lt;font style=&quot;vertical-align: inherit;&quot;&gt;&lt;font style=&quot;vertical-align: inherit;&quot;&gt;&lt;font style=&quot;vertical-align: inherit; font-size: 6px;&quot;&gt;&lt;font style=&quot;vertical-align: inherit;&quot;&gt;&lt;font style=&quot;vertical-align: inherit;&quot;&gt;&lt;font style=&quot;vertical-align: inherit;&quot;&gt;&lt;font style=&quot;vertical-align: inherit;&quot;&gt;&lt;font style=&quot;vertical-align: inherit;&quot;&gt;&lt;font style=&quot;vertical-align: inherit;&quot;&gt;email corresponde&amp;nbsp; &amp;nbsp; &amp;nbsp;ao registro DB?&amp;nbsp;&lt;/font&gt;&lt;/font&gt;&lt;/font&gt;&lt;/font&gt;&lt;/font&gt;&lt;/font&gt;&lt;/font&gt;&lt;/font&gt;&lt;/font&gt;&lt;/font&gt;&lt;/span&gt;" style="text;html=1;align=center;verticalAlign=middle;resizable=0;points=[];autosize=1;strokeColor=none;fillColor=none;fontSize=12;" parent="1" vertex="1">
          <mxGeometry x="170" y="600" width="120" height="30" as="geometry" />
        </mxCell>
        <mxCell id="LHLX_6FpRkzY1i8xHUrP-150" value="&lt;span style=&quot;&quot;&gt;&lt;font style=&quot;vertical-align: inherit;&quot;&gt;&lt;font style=&quot;vertical-align: inherit;&quot;&gt;&lt;font style=&quot;vertical-align: inherit;&quot;&gt;&lt;font style=&quot;vertical-align: inherit; font-size: 6px;&quot;&gt;&lt;font style=&quot;vertical-align: inherit;&quot;&gt;&lt;font style=&quot;vertical-align: inherit;&quot;&gt;&lt;font style=&quot;vertical-align: inherit;&quot;&gt;&lt;font style=&quot;vertical-align: inherit;&quot;&gt;&lt;font style=&quot;vertical-align: inherit;&quot;&gt;&lt;font style=&quot;vertical-align: inherit;&quot;&gt;email corresponde&amp;nbsp; &amp;nbsp; &amp;nbsp;ao registro DB?&amp;nbsp;&lt;/font&gt;&lt;/font&gt;&lt;/font&gt;&lt;/font&gt;&lt;/font&gt;&lt;/font&gt;&lt;/font&gt;&lt;/font&gt;&lt;/font&gt;&lt;/font&gt;&lt;/span&gt;" style="text;html=1;align=center;verticalAlign=middle;resizable=0;points=[];autosize=1;strokeColor=none;fillColor=none;fontSize=12;" parent="1" vertex="1">
          <mxGeometry x="170" y="760" width="120" height="30" as="geometry" />
        </mxCell>
      </root>
    </mxGraphModel>
  </diagram>
  <diagram id="nGwkYP6KwtfXDhD1wSqK" name="Page-2">
    <mxGraphModel dx="1235" dy="679" grid="1" gridSize="10" guides="1" tooltips="1" connect="1" arrows="1" fold="1" page="1" pageScale="1" pageWidth="827" pageHeight="1169" math="0" shadow="0">
      <root>
        <mxCell id="0" />
        <mxCell id="1" parent="0" />
        <mxCell id="j6Z6B7jXOkgmwzLGGSYQ-2" value="" style="edgeStyle=orthogonalEdgeStyle;rounded=0;orthogonalLoop=1;jettySize=auto;html=1;endArrow=none;endFill=0;" edge="1" parent="1" source="JpabnDjNECiLwwynXuOD-1" target="j6Z6B7jXOkgmwzLGGSYQ-1">
          <mxGeometry relative="1" as="geometry" />
        </mxCell>
        <mxCell id="JpabnDjNECiLwwynXuOD-1" value="Começar" style="strokeWidth=2;html=1;shape=mxgraph.flowchart.start_1;whiteSpace=wrap;" vertex="1" parent="1">
          <mxGeometry x="66" y="60" width="100" height="60" as="geometry" />
        </mxCell>
        <mxCell id="j6Z6B7jXOkgmwzLGGSYQ-5" value="" style="edgeStyle=orthogonalEdgeStyle;rounded=0;orthogonalLoop=1;jettySize=auto;html=1;" edge="1" parent="1" source="j6Z6B7jXOkgmwzLGGSYQ-1" target="j6Z6B7jXOkgmwzLGGSYQ-4">
          <mxGeometry relative="1" as="geometry" />
        </mxCell>
        <mxCell id="j6Z6B7jXOkgmwzLGGSYQ-1" value="Página inicial: O usuário escolhe a opção de comprar o bilhete único impresso." style="whiteSpace=wrap;html=1;strokeWidth=2;" vertex="1" parent="1">
          <mxGeometry x="46" y="200" width="140" height="70" as="geometry" />
        </mxCell>
        <mxCell id="j6Z6B7jXOkgmwzLGGSYQ-7" value="" style="edgeStyle=orthogonalEdgeStyle;rounded=0;orthogonalLoop=1;jettySize=auto;html=1;endArrow=none;endFill=0;" edge="1" parent="1" source="j6Z6B7jXOkgmwzLGGSYQ-4" target="j6Z6B7jXOkgmwzLGGSYQ-6">
          <mxGeometry relative="1" as="geometry" />
        </mxCell>
        <mxCell id="j6Z6B7jXOkgmwzLGGSYQ-4" value="Escolher quantos bilhetes únicos irão ser impressos" style="whiteSpace=wrap;html=1;strokeWidth=2;" vertex="1" parent="1">
          <mxGeometry x="236" y="197.5" width="130" height="75" as="geometry" />
        </mxCell>
        <mxCell id="j6Z6B7jXOkgmwzLGGSYQ-9" value="" style="edgeStyle=orthogonalEdgeStyle;rounded=0;orthogonalLoop=1;jettySize=auto;html=1;endArrow=none;endFill=0;" edge="1" parent="1" source="j6Z6B7jXOkgmwzLGGSYQ-6" target="j6Z6B7jXOkgmwzLGGSYQ-8">
          <mxGeometry relative="1" as="geometry" />
        </mxCell>
        <mxCell id="j6Z6B7jXOkgmwzLGGSYQ-6" value="Usuário seleciona qual forma de pagamento, dinheiro." style="whiteSpace=wrap;html=1;strokeWidth=2;" vertex="1" parent="1">
          <mxGeometry x="416" y="197.5" width="140" height="75" as="geometry" />
        </mxCell>
        <mxCell id="j6Z6B7jXOkgmwzLGGSYQ-10" style="edgeStyle=orthogonalEdgeStyle;rounded=0;orthogonalLoop=1;jettySize=auto;html=1;exitX=0.5;exitY=1;exitDx=0;exitDy=0;entryX=0.5;entryY=1;entryDx=0;entryDy=0;" edge="1" parent="1" source="j6Z6B7jXOkgmwzLGGSYQ-8" target="j6Z6B7jXOkgmwzLGGSYQ-6">
          <mxGeometry relative="1" as="geometry">
            <mxPoint x="661" y="370" as="targetPoint" />
            <Array as="points">
              <mxPoint x="661" y="340" />
              <mxPoint x="486" y="340" />
            </Array>
          </mxGeometry>
        </mxCell>
        <mxCell id="j6Z6B7jXOkgmwzLGGSYQ-11" value="voltar" style="edgeLabel;html=1;align=center;verticalAlign=middle;resizable=0;points=[];" vertex="1" connectable="0" parent="j6Z6B7jXOkgmwzLGGSYQ-10">
          <mxGeometry x="-0.0944" relative="1" as="geometry">
            <mxPoint as="offset" />
          </mxGeometry>
        </mxCell>
        <mxCell id="j6Z6B7jXOkgmwzLGGSYQ-12" style="rounded=0;orthogonalLoop=1;jettySize=auto;html=1;endArrow=classic;endFill=1;exitX=1;exitY=0.5;exitDx=0;exitDy=0;" edge="1" parent="1" source="j6Z6B7jXOkgmwzLGGSYQ-8">
          <mxGeometry relative="1" as="geometry">
            <mxPoint x="746" y="380" as="targetPoint" />
            <Array as="points">
              <mxPoint x="746" y="235" />
            </Array>
          </mxGeometry>
        </mxCell>
        <mxCell id="j6Z6B7jXOkgmwzLGGSYQ-13" value="confirmar" style="edgeLabel;html=1;align=center;verticalAlign=middle;resizable=0;points=[];" vertex="1" connectable="0" parent="j6Z6B7jXOkgmwzLGGSYQ-12">
          <mxGeometry x="0.0054" relative="1" as="geometry">
            <mxPoint as="offset" />
          </mxGeometry>
        </mxCell>
        <mxCell id="j6Z6B7jXOkgmwzLGGSYQ-8" value="Informações corretas ?" style="rhombus;whiteSpace=wrap;html=1;strokeWidth=2;" vertex="1" parent="1">
          <mxGeometry x="606" y="187.5" width="110" height="95" as="geometry" />
        </mxCell>
        <mxCell id="j6Z6B7jXOkgmwzLGGSYQ-16" value="" style="edgeStyle=orthogonalEdgeStyle;rounded=0;orthogonalLoop=1;jettySize=auto;html=1;endArrow=none;endFill=0;" edge="1" parent="1" source="j6Z6B7jXOkgmwzLGGSYQ-14" target="j6Z6B7jXOkgmwzLGGSYQ-15">
          <mxGeometry relative="1" as="geometry" />
        </mxCell>
        <mxCell id="j6Z6B7jXOkgmwzLGGSYQ-14" value="Usuário tem sua compra aprovada" style="whiteSpace=wrap;html=1;strokeWidth=2;" vertex="1" parent="1">
          <mxGeometry x="656" y="380" width="140" height="75" as="geometry" />
        </mxCell>
        <mxCell id="j6Z6B7jXOkgmwzLGGSYQ-34" value="" style="edgeStyle=orthogonalEdgeStyle;rounded=0;orthogonalLoop=1;jettySize=auto;html=1;endArrow=none;endFill=0;" edge="1" parent="1" source="j6Z6B7jXOkgmwzLGGSYQ-15" target="j6Z6B7jXOkgmwzLGGSYQ-33">
          <mxGeometry relative="1" as="geometry" />
        </mxCell>
        <mxCell id="j6Z6B7jXOkgmwzLGGSYQ-15" value="Usuário imprimi seu recibo" style="whiteSpace=wrap;html=1;strokeWidth=2;" vertex="1" parent="1">
          <mxGeometry x="661" y="540" width="130" height="62.5" as="geometry" />
        </mxCell>
        <mxCell id="j6Z6B7jXOkgmwzLGGSYQ-36" value="" style="edgeStyle=orthogonalEdgeStyle;rounded=0;orthogonalLoop=1;jettySize=auto;html=1;endArrow=none;endFill=0;" edge="1" parent="1" source="j6Z6B7jXOkgmwzLGGSYQ-33" target="j6Z6B7jXOkgmwzLGGSYQ-35">
          <mxGeometry relative="1" as="geometry" />
        </mxCell>
        <mxCell id="j6Z6B7jXOkgmwzLGGSYQ-37" style="edgeStyle=orthogonalEdgeStyle;rounded=0;orthogonalLoop=1;jettySize=auto;html=1;entryX=0.5;entryY=1;entryDx=0;entryDy=0;" edge="1" parent="1" source="j6Z6B7jXOkgmwzLGGSYQ-33" target="j6Z6B7jXOkgmwzLGGSYQ-1">
          <mxGeometry relative="1" as="geometry" />
        </mxCell>
        <mxCell id="j6Z6B7jXOkgmwzLGGSYQ-33" value="Sistema volta a sua tela inicial." style="whiteSpace=wrap;html=1;strokeWidth=2;" vertex="1" parent="1">
          <mxGeometry x="666" y="683.75" width="120" height="60" as="geometry" />
        </mxCell>
        <mxCell id="j6Z6B7jXOkgmwzLGGSYQ-35" value="Fim" style="strokeWidth=2;html=1;shape=mxgraph.flowchart.terminator;whiteSpace=wrap;" vertex="1" parent="1">
          <mxGeometry x="676" y="790" width="100" height="60" as="geometry" />
        </mxCell>
      </root>
    </mxGraphModel>
  </diagram>
</mxfile>
